<svg width="97" height="60" viewBox="0 0 97 60" fill="none" xmlns="http://www.w3.org/2000/svg">
<rect width="93" height="52" transform="translate(2 4)" fill="white"/>
<path d="M47.4439 25.4668V36.839H45.3386V27.749H45.2803L43 29.3816V27.2493L45.465 25.4668H47.4439Z" fill="#320064"/>
<path d="M59.7363 36.839H56.2065V25.4668H59.7655C60.7671 25.4668 61.6293 25.6945 62.3521 26.1498C63.0749 26.6015 63.6308 27.2511 64.0198 28.0989C64.412 28.9466 64.6081 29.9609 64.6081 31.1418C64.6081 32.3264 64.412 33.3444 64.0198 34.1958C63.6308 35.0473 63.0717 35.7006 62.3424 36.156C61.6163 36.6113 60.7476 36.839 59.7363 36.839ZM58.3117 34.7789H59.6488C60.2711 34.7789 60.7946 34.653 61.2192 34.4013C61.6471 34.1459 61.968 33.7516 62.1819 33.2185C62.3991 32.6818 62.5077 31.9895 62.5077 31.1418C62.5077 30.3015 62.3991 29.6148 62.1819 29.0817C61.968 28.5486 61.6487 28.1562 61.2241 27.9045C60.7995 27.6528 60.276 27.5269 59.6537 27.5269H58.3117V34.7789Z" fill="#320064"/>
<path d="M66.1287 36.839V28.3099H68.1367V29.798H68.2145C68.3506 29.2686 68.5791 28.8688 68.9 28.5986C69.2209 28.3247 69.5904 28.1877 70.0086 28.1877C70.1123 28.1877 70.2241 28.1951 70.344 28.2099C70.464 28.2247 70.5693 28.2451 70.6601 28.271V30.37C70.5628 30.3366 70.4283 30.307 70.2565 30.2811C70.0847 30.2552 69.9275 30.2422 69.7849 30.2422C69.4802 30.2422 69.2079 30.3181 68.9681 30.4699C68.7315 30.618 68.5435 30.8253 68.4041 31.0918C68.268 31.3584 68.1999 31.6656 68.1999 32.0136V36.839H66.1287Z" fill="#320064"/>
<path d="M73.6466 37C73.1701 37 72.7455 36.9056 72.3727 36.7168C72 36.5243 71.705 36.2411 71.4878 35.8672C71.2739 35.4896 71.1669 35.0195 71.1669 34.4568C71.1669 33.983 71.2431 33.585 71.3955 33.263C71.5478 32.9409 71.7552 32.6818 72.0178 32.4856C72.2803 32.2894 72.5785 32.1413 72.9124 32.0413C73.2495 31.9414 73.6028 31.8711 73.9723 31.8303C74.4067 31.7785 74.7567 31.7304 75.0225 31.686C75.2883 31.6378 75.4812 31.5675 75.6011 31.475C75.721 31.3824 75.781 31.2454 75.781 31.0641V31.0307C75.781 30.6791 75.6838 30.407 75.4893 30.2145C75.298 30.022 75.0258 29.9257 74.6725 29.9257C74.2997 29.9257 74.0031 30.0201 73.7827 30.2089C73.5623 30.394 73.4164 30.6272 73.3451 30.9086L71.4295 30.7309C71.5267 30.2126 71.718 29.7647 72.0032 29.3871C72.2884 29.0058 72.6563 28.7134 73.1069 28.5098C73.5607 28.3025 74.0858 28.1988 74.6822 28.1988C75.0971 28.1988 75.4941 28.2543 75.8734 28.3654C76.2559 28.4765 76.5946 28.6486 76.8895 28.8818C77.1877 29.115 77.4227 29.4149 77.5945 29.7814C77.7663 30.1441 77.8522 30.5791 77.8522 31.0863V36.839H75.888V35.6562H75.8296C75.7097 35.9228 75.5492 36.1578 75.3483 36.3614C75.1473 36.5613 74.9058 36.7187 74.6238 36.8334C74.3418 36.9445 74.0161 37 73.6466 37ZM74.2397 35.3675C74.5444 35.3675 74.8135 35.299 75.0468 35.162C75.2802 35.0214 75.4633 34.8326 75.5962 34.5956C75.7291 34.3587 75.7956 34.0903 75.7956 33.7905V32.8854C75.7308 32.9335 75.6416 32.9779 75.5282 33.0186C75.418 33.0557 75.2932 33.0908 75.1538 33.1241C75.0144 33.1538 74.875 33.1815 74.7357 33.2074C74.5963 33.2296 74.4699 33.25 74.3564 33.2685C74.1133 33.3092 73.901 33.374 73.7195 33.4629C73.538 33.5517 73.397 33.672 73.2965 33.8238C73.196 33.9719 73.1458 34.157 73.1458 34.3791C73.1458 34.7011 73.2479 34.9473 73.4521 35.1176C73.6595 35.2842 73.9221 35.3675 74.2397 35.3675Z" fill="#320064"/>
<path d="M80.9323 36.839L78.9 28.3099H80.9955L82.1527 34.0404H82.2208L83.4265 28.3099H85.4832L86.7084 34.007H86.7716L87.9093 28.3099H90L87.9725 36.839H85.7798L84.4962 31.475H84.4038L83.1202 36.839H80.9323Z" fill="#320064"/>
<path d="M51.0366 24.4989C51.0196 24.3029 50.9466 24.1507 50.8175 24.0422C50.6885 23.9337 50.5134 23.8794 50.2921 23.8794C50.1418 23.8794 50.0149 23.9037 49.9114 23.9523C49.8079 23.9993 49.7284 24.0649 49.6731 24.1491C49.6192 24.2333 49.5923 24.3289 49.5923 24.4357C49.5895 24.5248 49.6058 24.6026 49.6412 24.669C49.6781 24.7354 49.7284 24.7929 49.7923 24.8414C49.8561 24.8884 49.9298 24.9297 50.0135 24.9653C50.0971 24.9994 50.1865 25.0285 50.2815 25.0528L50.6729 25.1597C50.8629 25.2083 51.0373 25.2731 51.1962 25.354C51.355 25.435 51.4925 25.5346 51.6088 25.6529C51.7251 25.7711 51.8152 25.9104 51.879 26.0707C51.9442 26.231 51.9775 26.4149 51.9789 26.6222C51.9775 26.9266 51.9095 27.1906 51.7747 27.4141C51.6414 27.636 51.4486 27.8085 51.1962 27.9316C50.9452 28.053 50.6424 28.1138 50.2879 28.1138C49.9362 28.1138 49.6299 28.0522 49.369 27.9292C49.1094 27.8061 48.9067 27.6239 48.7606 27.3825C48.6159 27.1396 48.5401 26.8392 48.533 26.4813H49.4243C49.4342 26.6481 49.476 26.7874 49.5498 26.8991C49.6249 27.0092 49.7249 27.0926 49.8497 27.1493C49.9759 27.2044 50.1184 27.2319 50.2772 27.2319C50.4332 27.2319 50.5687 27.206 50.6835 27.1542C50.7998 27.1024 50.8899 27.0303 50.9537 26.938C51.0175 26.8457 51.0494 26.7396 51.0494 26.6197C51.0494 26.508 51.0203 26.414 50.9622 26.3379C50.9055 26.2618 50.8218 26.197 50.7112 26.1436C50.602 26.0901 50.468 26.0415 50.3091 25.9978L49.8348 25.8618C49.4675 25.7597 49.1775 25.6002 48.9648 25.3832C48.7521 25.1662 48.6464 24.8738 48.6479 24.5062C48.6464 24.205 48.7166 23.9418 48.8584 23.7167C49.0017 23.4915 49.1981 23.3158 49.4477 23.1895C49.6972 23.0632 49.9809 23 50.2985 23C50.6218 23 50.904 23.0632 51.1451 23.1895C51.3876 23.3158 51.5762 23.4915 51.7109 23.7167C51.8456 23.9418 51.9151 24.2025 51.9194 24.4989H51.0366Z" fill="#320064"/>
<path d="M52.4326 23.9353V23.068H56.0104V23.9353H54.6767V28.0433H53.7663V23.9353H52.4326Z" fill="#320064"/>
<rect width="23.3987" height="35.2532" transform="matrix(0.95261 -0.304194 0.360539 0.932744 4 17.1177)" fill="#320064"/>
<ellipse cx="8.35662" cy="9.19328" rx="8.35662" ry="9.19328" transform="matrix(0.948085 -0.318018 0.376202 0.926538 10.1284 24.8682)" fill="white"/>
</svg>
